<svg width="72" height="72" viewBox="0 0 72 72" fill="none" xmlns="http://www.w3.org/2000/svg">
<path fill-rule="evenodd" clip-rule="evenodd" d="M36 70C54.7777 70 70 54.7777 70 36C70 17.2223 54.7777 2 36 2C17.2223 2 2 17.2223 2 36C2 54.7777 17.2223 70 36 70ZM36 72C55.8823 72 72 55.8823 72 36C72 16.1177 55.8823 0 36 0C16.1177 0 0 16.1177 0 36C0 55.8823 16.1177 72 36 72Z" fill="#121212"/>
<path d="M37.6652 46.4782C37.6979 45.3148 36.7189 44.3567 35.5116 44.3567C34.3695 44.3567 33.4232 45.3148 33.4232 46.4782C33.4232 47.6415 34.3695 48.5996 35.5116 48.5996C36.7189 48.5996 37.6979 47.6415 37.6652 46.4782Z" fill="#121212"/>
<path d="M33.4232 23.143L37.666 23.1426L36.9589 41.5283L34.1303 41.5283L33.4232 23.143Z" fill="#121212"/>
</svg>
