<svg width="120" height="120" viewBox="0 0 120 120" fill="none" xmlns="http://www.w3.org/2000/svg">
<path d="M27.5521 16.6976H34.5101V12.3193C34.5452 11.7269 34.8052 11.1702 35.2371 10.7632C35.669 10.3561 36.24 10.1294 36.8335 10.1294C37.427 10.1294 37.998 10.3561 38.4299 10.7632C38.8618 11.1702 39.1218 11.7269 39.1569 12.3193V16.6976H49.3701V12.3193C49.3701 11.7042 49.6145 11.1143 50.0494 10.6793C50.4844 10.2444 51.0743 10 51.6895 10C52.3046 10 52.8945 10.2444 53.3295 10.6793C53.7644 11.1143 54.0088 11.7042 54.0088 12.3193V16.6976H64.222V12.3193C64.2571 11.7269 64.5171 11.1702 64.949 10.7632C65.3809 10.3561 65.9519 10.1294 66.5454 10.1294C67.1389 10.1294 67.7099 10.3561 68.1418 10.7632C68.5737 11.1702 68.8337 11.7269 68.8688 12.3193V16.6976H79.082V12.3193C79.082 11.7042 79.3264 11.1143 79.7614 10.6793C80.1963 10.2444 80.7862 10 81.4014 10C82.0165 10 82.6064 10.2444 83.0414 10.6793C83.4763 11.1143 83.7207 11.7042 83.7207 12.3193V16.6976H91.6146C93.6155 16.7019 95.533 17.4992 96.9471 18.9148C98.3611 20.3304 99.1564 22.2488 99.1585 24.2497V102.448C99.15 104.447 98.3527 106.362 96.94 107.776C95.5273 109.19 93.6135 109.989 91.6146 110H27.5521C25.5505 109.996 23.6321 109.199 22.2167 107.783C20.8013 106.368 20.0043 104.45 20 102.448V24.2497C20.0022 22.2474 20.7985 20.3277 22.2143 18.9119C23.6302 17.4961 25.5498 16.6997 27.5521 16.6976ZM37.3177 90.1921C36.7198 90.1921 36.1465 89.9546 35.7237 89.5318C35.301 89.1091 35.0635 88.5357 35.0635 87.9378C35.0635 87.34 35.301 86.7666 35.7237 86.3438C36.1465 85.9211 36.7198 85.6836 37.3177 85.6836H81.849C82.4468 85.6836 83.0202 85.9211 83.4429 86.3438C83.8657 86.7666 84.1032 87.34 84.1032 87.9378C84.1032 88.5357 83.8657 89.1091 83.4429 89.5318C83.0202 89.9546 82.4468 90.1921 81.849 90.1921H37.3177ZM37.3177 75.332C36.7443 75.2975 36.2057 75.0454 35.8119 74.6272C35.4182 74.209 35.1989 73.6563 35.1989 73.0819C35.1989 72.5074 35.4182 71.9547 35.8119 71.5365C36.2057 71.1183 36.7443 70.8662 37.3177 70.8317H81.849C82.4223 70.8662 82.9609 71.1183 83.3547 71.5365C83.7485 71.9547 83.9678 72.5074 83.9678 73.0819C83.9678 73.6563 83.7485 74.209 83.3547 74.6272C82.9609 75.0454 82.4223 75.2975 81.849 75.332H37.3177ZM37.3177 60.4801C36.7198 60.4801 36.1465 60.2426 35.7237 59.8199C35.301 59.3971 35.0635 58.8238 35.0635 58.2259C35.0635 57.6281 35.301 57.0547 35.7237 56.6319C36.1465 56.2092 36.7198 55.9717 37.3177 55.9717H81.849C82.4032 56.0296 82.9164 56.2908 83.2895 56.7048C83.6625 57.1189 83.8689 57.6564 83.8689 58.2137C83.8689 58.771 83.6625 59.3085 83.2895 59.7226C82.9164 60.1366 82.4032 60.3978 81.849 60.4557L37.3177 60.4801ZM37.3177 45.6201C36.7443 45.5856 36.2057 45.3335 35.8119 44.9153C35.4182 44.4971 35.1989 43.9444 35.1989 43.37C35.1989 42.7955 35.4182 42.2428 35.8119 41.8246C36.2057 41.4064 36.7443 41.1543 37.3177 41.1198H81.849C82.4223 41.1543 82.9609 41.4064 83.3547 41.8246C83.7485 42.2428 83.9678 42.7955 83.9678 43.37C83.9678 43.9444 83.7485 44.4971 83.3547 44.9153C82.9609 45.3335 82.4223 45.5856 81.849 45.6201H37.3177ZM83.7533 21.2061V25.5843C83.7533 26.1994 83.5089 26.7894 83.0739 27.2243C82.639 27.6593 82.049 27.9036 81.4339 27.9036C80.8188 27.9036 80.2289 27.6593 79.7939 27.2243C79.3589 26.7894 79.1146 26.1994 79.1146 25.5843V21.1979H68.8688V25.5762C68.8337 26.1686 68.5737 26.7253 68.1418 27.1323C67.7099 27.5394 67.1389 27.7661 66.5454 27.7661C65.9519 27.7661 65.3809 27.5394 64.949 27.1323C64.5171 26.7253 64.2571 26.1686 64.222 25.5762V21.1979H54.0088V25.5762C54.0088 26.1913 53.7644 26.7812 53.3295 27.2162C52.8945 27.6512 52.3046 27.8955 51.6895 27.8955C51.0743 27.8955 50.4844 27.6512 50.0494 27.2162C49.6145 26.7812 49.3701 26.1913 49.3701 25.5762V21.1979H39.1569V25.5762C39.1218 26.1686 38.8618 26.7253 38.4299 27.1323C37.998 27.5394 37.427 27.7661 36.8335 27.7661C36.24 27.7661 35.669 27.5394 35.2371 27.1323C34.8052 26.7253 34.5452 26.1686 34.5101 25.5762V21.1979H27.5521C27.1525 21.1971 26.7567 21.2758 26.3879 21.4295C26.019 21.5832 25.6844 21.8088 25.4036 22.0931C25.1187 22.3755 24.8923 22.7114 24.7373 23.0814C24.5823 23.4515 24.5017 23.8485 24.5003 24.2497V102.448C24.5088 103.255 24.833 104.026 25.4035 104.596C25.974 105.167 26.7453 105.491 27.5521 105.5H91.6146C92.4219 105.495 93.1948 105.172 93.7649 104.601C94.335 104.029 94.6561 103.255 94.6582 102.448V24.2497C94.6561 23.4424 94.335 22.6686 93.7649 22.097C93.1948 21.5254 92.4219 21.2022 91.6146 21.1979L83.7533 21.2061Z" fill="white"/>
</svg>
