<svg width="120" height="120" viewBox="0 0 120 120" fill="none" xmlns="http://www.w3.org/2000/svg">
<path d="M31.5084 48.8231H86.2962V42.2437C86.4497 40.6125 85.3146 40.2068 83.9335 40.1458C83.141 40.108 82.2582 40.1038 81.4615 40.1437H49.895C42.3213 40.1437 40.8205 36.1414 39.3932 32.3388C38.5797 30.1695 37.804 28.099 34.632 28.099H12.6908C11.2698 28.099 10.099 29.2698 10.099 30.6908V83.8811L23.014 54.4629C24.3803 51.3477 28.0862 48.8231 31.5084 48.8231ZM90.3952 48.8231H108.483C112.5 48.8231 114.731 52.2452 113.072 56.031L113.078 56.0331L97.5716 91.3602C96.2053 94.4775 92.4973 97 89.0772 97H12.1023C10.4942 97 9.19301 96.4619 8.30174 95.5832C6.99847 94.4923 6 91.9824 6 90.3176V30.6908C6 27.008 9.00803 24 12.6908 24H34.632C40.6271 24 41.8946 27.3759 43.221 30.9136C44.1585 33.413 45.1444 36.0426 49.895 36.0426C60.6575 36.0426 71.4368 36.112 82.1972 36.0468C82.8383 36.0405 83.4963 36.0342 84.1101 36.0616C87.5595 36.2213 90.5886 37.1967 90.391 42.2437L90.3952 48.8231ZM108.467 52.8275H31.4916C29.6712 52.8275 27.4977 54.3872 26.7746 56.0331L11.2677 91.3602L11.2614 91.3581C10.8305 92.3419 10.9545 92.9977 12.117 92.9977H89.094C90.9144 92.9977 93.0858 91.4359 93.8089 89.79L109.316 54.4629C109.33 54.4692 110.176 52.8275 108.467 52.8275Z" fill="#FFFBFB"/>
</svg>
