<svg width="120" height="120" viewBox="0 0 120 120" fill="none" xmlns="http://www.w3.org/2000/svg">
<path d="M56.7456 10.4428C56.1186 10.6975 55.276 11.1482 54.8841 11.4225C54.4727 11.6968 44.5777 21.5134 32.8605 33.2306C15.6961 50.4342 11.4834 54.7449 11.0719 55.5678C9.19088 59.3691 9.81789 63.523 12.6982 66.4229C14.5009 68.206 16.7934 69.1465 19.419 69.1465H20.7514V84.8217C20.7514 95.422 20.8297 100.81 20.9669 101.516C21.7115 105.082 24.5918 108.315 28.1579 109.549C29.4511 110 29.5491 110 39.013 110C48.3397 110 48.5553 110 49.0843 109.589C49.3782 109.373 49.8093 108.942 50.0248 108.648C50.4363 108.119 50.4363 107.864 50.5343 95.0302L50.6322 81.9414L51.2201 80.9813C51.9646 79.786 53.4734 78.8259 54.9233 78.6496C55.472 78.5712 58.2151 78.5516 61.0171 78.5908L66.1115 78.6496L67.15 79.2178C68.1297 79.7664 68.7567 80.413 69.3641 81.4907C69.5797 81.9022 69.658 84.3122 69.7364 95.0498C69.8344 107.864 69.8344 108.119 70.2459 108.648C70.4614 108.942 70.8925 109.373 71.1864 109.589C71.7154 110 71.9309 110 81.2577 110C90.7216 110 90.8196 110 92.1128 109.549C95.6789 108.315 98.5592 105.082 99.3038 101.516C99.4409 100.81 99.5193 95.422 99.5193 84.8217V69.1465H100.852C104.535 69.1465 107.749 67.1871 109.336 63.9541C110.002 62.6021 110.002 62.5629 110.002 59.9373C110.002 55.4698 112.255 58.115 87.0967 32.9759C62.0947 7.95435 64.6028 10.1097 60.3313 10.0117C58.1172 9.97253 57.7841 10.0117 56.7456 10.4428ZM61.5853 16.0467C62.7413 16.5953 103.693 57.6056 104.124 58.6049C104.535 59.6042 104.496 60.4467 104.006 61.4264C103.281 62.9352 102.674 63.1507 98.8923 63.2683C95.3458 63.3662 95.0911 63.4446 94.1506 64.7182C93.7391 65.2473 93.7391 65.4628 93.6411 83.019L93.5431 100.791L92.9945 101.712C92.7006 102.221 92.1716 102.868 91.8189 103.122C90.4473 104.181 90.0358 104.22 82.5509 104.22H75.6146V93.2471C75.6146 86.0561 75.5362 81.9414 75.3991 81.2556C74.6349 77.5719 71.6762 74.3977 67.875 73.2024C66.5818 72.791 66.1507 72.7714 60.1353 72.7714C53.1207 72.7714 52.768 72.8106 50.2599 74.0842C47.7715 75.3382 45.4594 78.434 44.8716 81.2556C44.7344 81.9414 44.6561 86.0561 44.6561 93.2471V104.22H37.7198C30.2349 104.22 29.8234 104.181 28.4518 103.122C28.0991 102.868 27.5701 102.221 27.2762 101.712L26.7275 100.791L26.6296 83.019C26.5316 65.4628 26.5316 65.2473 26.1201 64.7182C25.1796 63.4446 24.9249 63.3662 21.3784 63.2683C17.5967 63.1507 16.9893 62.9352 16.2643 61.4264C15.7745 60.4467 15.7353 59.6042 16.1468 58.6049C16.5582 57.6252 57.5293 16.6149 58.6658 16.0467C59.6651 15.5568 60.586 15.5568 61.5853 16.0467Z" fill="white"/>
</svg>
